<?xml version="1.0" encoding="UTF-8"?>
<svg version="1.1" xmlns="http://www.w3.org/2000/svg" width="500" height="500">
<path d="M0 0 C31.75078959 -1.01295148 62.22972382 11.55232618 85.30859375 32.8984375 C106.06663833 53.62129895 115.5997918 81.76815586 115.86328125 110.63671875 C115.60029628 139.47630752 106.50037986 164.32383879 87.61328125 186.19921875 C87.03191406 186.88242187 86.45054687 187.565625 85.8515625 188.26953125 C77.94249468 196.83602788 66.26610692 204.56099731 55.61328125 209.19921875 C54.62328125 209.19921875 53.63328125 209.19921875 52.61328125 209.19921875 C36.86942564 170.2179445 36.86942564 170.2179445 31.61328125 154.19921875 C32.62390625 153.41546875 33.63453125 152.63171875 34.67578125 151.82421875 C44.11836546 143.700538 50.71177991 131.33392452 51.82006836 118.87451172 C51.91676496 116.39556261 51.94244185 113.92998155 51.92578125 111.44921875 C51.9201416 110.56886963 51.91450195 109.68852051 51.90869141 108.78149414 C51.63782208 94.19075584 46.92598661 81.95398847 36.88671875 71.203125 C32.90873937 67.69676173 28.40808124 65.3998919 23.61328125 63.19921875 C22.52402344 62.67457031 21.43476563 62.14992187 20.3125 61.609375 C16.14397583 60.02031774 12.39834598 59.43636279 7.98828125 59.01171875 C7.2509375 58.92986328 6.51359375 58.84800781 5.75390625 58.76367188 C2.02202422 58.36573822 -1.6370164 58.16467239 -5.38671875 58.19921875 C-10.16345023 49.53794103 -13.55876732 40.33568327 -17.06274414 31.11181641 C-18.07780497 28.43977842 -19.099765 25.77046168 -20.12304688 23.1015625 C-20.77774104 21.38947478 -21.43205148 19.67724028 -22.0859375 17.96484375 C-22.38803635 17.17410461 -22.69013519 16.38336548 -23.00138855 15.56866455 C-24.55650997 11.4726614 -26.03708276 7.36893387 -27.38671875 3.19921875 C-18.26148153 1.31565275 -9.28597562 0.54623386 0 0 Z " fill="#1D3972" transform="translate(283.38671875,139.80078125)"/>
<path d="M0 0 C0.99 0.33 1.98 0.66 3 1 C3.98999023 3.46679688 3.98999023 3.46679688 4.87109375 6.71875 C6.90830821 13.80605602 9.41048102 20.62289227 12.0625 27.5 C12.53676611 28.74818246 13.01030144 29.9966428 13.4831543 31.24536133 C15.73850455 37.18734996 18.02979917 43.11050751 20.42811584 48.99642944 C21.48454427 51.59608429 22.5220117 54.20311148 23.55783081 56.81103516 C24.29420059 58.64199899 25.05803655 60.46184083 25.82250977 62.28125 C28.78260914 69.75759696 29.65284254 74.40786934 27 82 C26.79069855 82.62425873 26.58139709 83.24851746 26.36575317 83.89169312 C24.55087164 89.29807 22.59686988 94.64932784 20.625 100 C20.04104155 101.60393921 19.45770387 103.20810458 18.875 104.8125 C16.03680823 112.59679843 13.07900714 120.30248215 10 128 C23.2 128 36.4 128 50 128 C52.38283664 133.95709159 54.75488963 139.90410775 57.015625 145.90625 C57.40666412 146.94332092 57.40666412 146.94332092 57.80560303 148.00134277 C58.34723397 149.43947333 58.88826877 150.87782854 59.42871094 152.31640625 C60.25926114 154.52462295 61.09447021 156.73104499 61.9296875 158.9375 C62.45861989 160.34364224 62.98727616 161.74988839 63.515625 163.15625 C63.76556213 163.81451782 64.01549927 164.47278564 64.27301025 165.15100098 C66 169.77150566 66 169.77150566 66 172 C43.56 172.33 21.12 172.66 -2 173 C-4.48236719 178.58532619 -6.92495419 184.14144362 -9.1875 189.8125 C-9.44724609 190.45380859 -9.70699219 191.09511719 -9.97460938 191.75585938 C-11.20722385 194.83580303 -12.19283643 197.77134572 -13 201 C-34.12 201 -55.24 201 -77 201 C-76.09225283 196.46126416 -74.74470531 192.46903881 -73.05078125 188.19921875 C-72.75568161 187.44518265 -72.46058197 186.69114655 -72.15653992 185.91426086 C-71.21240756 183.50379637 -70.26272852 181.09556704 -69.3125 178.6875 C-68.07764908 175.54626925 -66.84513482 172.40412598 -65.61328125 169.26171875 C-65.30943008 168.48773743 -65.00557892 167.7137561 -64.69252014 166.9163208 C-62.1790769 160.49805719 -59.75112849 154.05033825 -57.35449219 147.58764648 C-55.69933948 143.20363981 -53.94673695 138.86491591 -52.1864624 134.52209473 C-50.49617703 130.32000479 -48.9384581 126.08554009 -47.4375 121.8125 C-45.56619533 116.49656444 -43.51132376 111.30113106 -41.3125 106.11328125 C-37.49378798 97.05520543 -33.94465218 87.90230056 -30.53149414 78.68457031 C-28.12835183 72.24656967 -25.56513489 65.87486337 -23 59.5 C-19.77117682 51.47545969 -16.63805134 43.43403553 -13.640625 35.3203125 C-11.03243801 28.3640122 -8.21162653 21.48810628 -5.42578125 14.6015625 C-5.01199219 13.57546875 -4.59820312 12.549375 -4.171875 11.4921875 C-3.8015918 10.57808105 -3.43130859 9.66397461 -3.04980469 8.72216797 C-1.93904707 5.84194763 -0.95484762 2.93521238 0 0 Z " fill="#1D3972" transform="translate(176,158)"/>
<path d="M0 0 C1.35612071 -0.0035743 2.71224058 -0.00747935 4.06835938 -0.01171875 C5.98938477 -0.00978516 5.98938477 -0.00978516 7.94921875 -0.0078125 C9.10123779 -0.00668457 10.25325684 -0.00555664 11.44018555 -0.00439453 C14.3125 0.125 14.3125 0.125 17.3125 1.125 C18.28540039 2.98706055 18.28540039 2.98706055 19.16015625 5.51171875 C19.50860596 6.48890869 19.85705566 7.46609863 20.21606445 8.47290039 C20.59851318 9.57496826 20.98096191 10.67703613 21.375 11.8125 C22.26123809 14.28555225 23.15102408 16.75700438 24.046875 19.2265625 C24.29375565 19.90902542 24.54063629 20.59148834 24.79499817 21.29463196 C28.38737328 31.16259951 32.27864624 40.91655694 36.125 50.6875 C37.7030531 54.70264259 39.27970626 58.71833293 40.85546875 62.734375 C41.24020859 63.71487823 41.62494843 64.69538147 42.02134705 65.70559692 C45.37553189 74.26447088 48.6694479 82.84543449 51.9375 91.4375 C57.35524317 105.67573488 62.87877565 119.87128549 68.42651367 134.05932617 C69.09946708 135.78042819 69.77240021 137.50153815 70.4453125 139.22265625 C70.93874901 140.48468117 70.93874901 140.48468117 71.44215393 141.77220154 C75.05149546 151.00825441 78.62945731 160.25638453 82.20043945 169.50732422 C84.46531876 175.37042969 86.74211457 181.22819952 89.05078125 187.07421875 C89.68898804 188.69239502 89.68898804 188.69239502 90.34008789 190.34326172 C91.13183753 192.34738294 91.92641699 194.35038948 92.72436523 196.35205078 C93.06798096 197.22200684 93.41159668 198.09196289 93.765625 198.98828125 C94.06629883 199.74407471 94.36697266 200.49986816 94.67675781 201.27856445 C95.3125 203.125 95.3125 203.125 95.3125 205.125 C88.65563186 205.1755916 81.99881306 205.2106876 75.34179688 205.23486328 C73.07582751 205.24493859 70.80987119 205.25859918 68.54394531 205.27587891 C65.29228499 205.30006011 62.04079613 205.31146763 58.7890625 205.3203125 C57.26244492 205.33579636 57.26244492 205.33579636 55.70498657 205.35159302 C54.76416229 205.35174408 53.82333801 205.35189514 52.85400391 205.35205078 C52.02349518 205.356492 51.19298645 205.36093323 50.33731079 205.36550903 C48.3125 205.125 48.3125 205.125 46.3125 203.125 C45.58569336 201.41113281 45.58569336 201.41113281 44.90234375 199.328125 C44.63921387 198.54518066 44.37608398 197.76223633 44.10498047 196.95556641 C43.82283691 196.10397949 43.54069336 195.25239258 43.25 194.375 C40.64928374 186.71803346 37.79521908 179.21526059 34.6875 171.75 C31.77765227 164.75232167 29.03708366 157.76142991 26.55078125 150.6015625 C25.07255196 146.45132884 23.48225948 142.35162585 21.875 138.25 C17.81718969 127.87822816 13.86225897 117.47613049 10.11328125 106.98828125 C9.72317871 105.89781494 9.33307617 104.80734863 8.93115234 103.68383789 C8.16665504 101.54220253 7.40506805 99.3995251 6.64697266 97.25561523 C4.44795945 91.08821683 2.06429652 85.03575982 -0.48461914 79.00488281 C-2.29718287 74.66532491 -3.96580806 70.27500633 -5.625 65.875 C-5.96781006 64.97023926 -6.31062012 64.06547852 -6.66381836 63.13330078 C-7.67401283 60.46472924 -8.68122944 57.79505327 -9.6875 55.125 C-9.96239258 54.39700195 -10.23728516 53.66900391 -10.52050781 52.91894531 C-12.84160067 46.76967136 -15.14573528 40.61467147 -17.40234375 34.44140625 C-17.99723449 32.81504514 -18.59228746 31.18874337 -19.1875 29.5625 C-19.47842529 28.76755127 -19.76935059 27.97260254 -20.0690918 27.15356445 C-22.42391959 20.75701495 -24.93490241 14.43413478 -27.5234375 8.12890625 C-28.43774889 5.76949197 -29.11018264 3.57381528 -29.6875 1.125 C-19.76872137 0.27826323 -9.95597397 -0.02961618 0 0 Z " fill="#1D3972" transform="translate(220.6875,153.875)"/>
</svg>
